<svg width="20" height="20" viewBox="0 0 20 20" fill="none" xmlns="http://www.w3.org/2000/svg">
<g id="instagram">
<g id="vuesax/linear/instagram">
<g id="instagram_2">
<path id="Vector" d="M7.50002 18.3334H12.5C16.6667 18.3334 18.3334 16.6667 18.3334 12.5001V7.50008C18.3334 3.33341 16.6667 1.66675 12.5 1.66675H7.50002C3.33335 1.66675 1.66669 3.33341 1.66669 7.50008V12.5001C1.66669 16.6667 3.33335 18.3334 7.50002 18.3334Z" fill="white" fill-opacity="0.6" stroke="white" stroke-opacity="0.6" stroke-width="1.5" stroke-linecap="round" stroke-linejoin="round"/>
<path id="Vector_2" d="M9.99998 12.9166C11.6108 12.9166 12.9166 11.6107 12.9166 9.99992C12.9166 8.38909 11.6108 7.08325 9.99998 7.08325C8.38915 7.08325 7.08331 8.38909 7.08331 9.99992C7.08331 11.6107 8.38915 12.9166 9.99998 12.9166Z" stroke="#1B1F23" stroke-width="1.5" stroke-linecap="round" stroke-linejoin="round"/>
<path id="Vector_3" d="M14.6968 5.83341H14.7064" stroke="#1B1F23" stroke-width="2" stroke-linecap="round" stroke-linejoin="round"/>
</g>
</g>
</g>
</svg>
