<svg width="20" height="20" viewBox="0 0 20 20" fill="none" xmlns="http://www.w3.org/2000/svg">
<g id="LinkedIn">
<g id="LinkedIn_2">
<rect id="Rectangle" width="20" height="20" rx="10" fill="white" fill-opacity="0.6"/>
<g id="Group">
<path id="Path" d="M15.5521 14.7188C14.8958 14.7032 14.2552 14.7032 13.5989 14.7188C13.4583 14.7188 13.4271 14.6876 13.4271 14.5469C13.4271 13.3907 13.4271 12.2188 13.4271 11.0626C13.4271 10.7969 13.4114 10.5313 13.3333 10.2813C13.0989 9.46882 12.1614 9.17195 11.4896 9.71882C11.1302 10.0001 10.9896 10.3907 10.9896 10.8594C10.9896 11.9532 10.9896 13.0469 10.9896 14.1407C10.9896 14.2813 10.9739 14.4219 10.9896 14.5782C11.0052 14.7032 10.9427 14.7344 10.8333 14.7188C10.1614 14.7188 9.50519 14.7188 8.83331 14.7188C8.70831 14.7188 8.67706 14.6876 8.67706 14.5626C8.69269 13.5782 8.69269 12.5938 8.69269 11.5938C8.69269 10.3751 8.69269 9.15632 8.67706 7.9532C8.67706 7.81257 8.70831 7.78132 8.83331 7.78132C9.50519 7.78132 10.1614 7.78132 10.8333 7.78132C10.9583 7.78132 10.9896 7.81257 10.9896 7.93757C10.9896 8.18757 10.9896 8.43757 10.9896 8.73445C11.0364 8.68757 11.0521 8.67195 11.0677 8.65632C11.6771 7.7657 12.5364 7.5157 13.5521 7.67195C14.7239 7.85945 15.4739 8.67195 15.6614 9.92195C15.7083 10.2188 15.7239 10.5157 15.7239 10.8126C15.7239 12.0626 15.7239 13.2969 15.7239 14.5469C15.7239 14.6719 15.6927 14.7188 15.5521 14.7188Z" fill="#1B1F23"/>
<path id="Path_2" d="M7.42706 11.2502C7.42706 12.344 7.42706 13.4377 7.42706 14.5315C7.42706 14.6721 7.39581 14.719 7.25519 14.719C6.59894 14.7034 5.94269 14.719 5.28644 14.719C5.16144 14.719 5.13019 14.6877 5.13019 14.5627C5.13019 12.3596 5.13019 10.1409 5.13019 7.93774C5.13019 7.82837 5.16144 7.78149 5.28644 7.78149C5.95831 7.78149 6.63019 7.78149 7.30206 7.78149C7.44269 7.78149 7.45831 7.82837 7.45831 7.95337C7.42706 9.04712 7.42706 10.1409 7.42706 11.2502Z" fill="#1B1F23"/>
<path id="Path_3" d="M7.53646 5.96888C7.38021 6.59388 6.73958 6.95326 6.00521 6.82826C5.22396 6.70326 4.78646 5.93763 5.06771 5.18763C5.25521 4.71888 5.70833 4.43763 6.28646 4.45326C7.16146 4.43763 7.73958 5.14076 7.53646 5.96888Z" fill="#1B1F23"/>
</g>
</g>
</g>
</svg>
