<svg width="28" height="28" viewBox="0 0 28 28" fill="none" xmlns="http://www.w3.org/2000/svg">
<path d="M10.687 12.6823C10.5703 12.6707 10.4303 12.6707 10.302 12.6823C7.52531 12.589 5.32031 10.314 5.32031 7.51398C5.32031 4.65565 7.63031 2.33398 10.5003 2.33398C13.3586 2.33398 15.6803 4.65565 15.6803 7.51398C15.6686 10.314 13.4636 12.589 10.687 12.6823Z" fill="#FF4F00" stroke="#FF4F00" stroke-width="1.5" stroke-linecap="round" stroke-linejoin="round"/>
<path d="M19.1439 4.66602C21.4072 4.66602 23.2272 6.49768 23.2272 8.74935C23.2272 10.9543 21.4772 12.751 19.2955 12.8327C19.2022 12.821 19.0972 12.821 18.9922 12.8327" fill="#FF4F00"/>
<path d="M4.85188 16.986C2.02854 18.876 2.02854 21.956 4.85188 23.8343C8.06021 25.981 13.3219 25.981 16.5302 23.8343C19.3535 21.9443 19.3535 18.8643 16.5302 16.986C13.3335 14.851 8.07188 14.851 4.85188 16.986Z" fill="#FF4F00" stroke="#FF4F00" stroke-width="1.5" stroke-linecap="round" stroke-linejoin="round"/>
<path d="M21.3984 23.334C22.2384 23.159 23.0318 22.8206 23.6851 22.319C25.5051 20.954 25.5051 18.7023 23.6851 17.3373C23.0434 16.8473 22.2618 16.5207 21.4334 16.334" fill="#FF4F00"/>
</svg>
