<svg version="1.1" id="Layer_1" xmlns="http://www.w3.org/2000/svg" xmlns:xlink="http://www.w3.org/1999/xlink" x="0px" y="0px"
	 width="100%" viewBox="0 0 225 225" enable-background="new 0 0 225 225" xml:space="preserve">
<path fill="#000000" opacity="1.000000" stroke="none" 
	d="
M226.000000,134.000000 
	C226.000000,164.625473 226.000000,195.250961 226.000000,225.938217 
	C151.000031,225.938217 76.000023,225.938217 1.000008,225.932327 
	C1.000000,221.266068 1.000000,216.605682 1.425090,211.458466 
	C3.428970,210.647797 5.005545,210.055634 6.586898,210.042572 
	C19.367685,209.937119 31.319683,206.459427 42.717953,201.010300 
	C56.050350,194.636551 67.283348,185.644043 76.580933,174.029587 
	C89.182999,158.287231 97.050285,140.327042 97.700706,120.484657 
	C98.791748,87.200401 97.952492,53.854256 98.061638,20.534599 
	C98.074455,16.621237 96.595955,15.395245 92.524254,16.074352 
	C78.383461,16.049274 64.705132,16.099014 50.560425,16.083866 
	C33.729362,15.679320 17.364681,15.339661 1.000000,15.000000 
	C1.000000,10.341532 1.000000,5.683063 1.000000,1.039632 
	C76.000008,1.039632 151.000015,1.039632 226.000000,1.039632 
	C226.000000,5.737733 226.000000,10.396203 225.533005,15.526581 
	C220.036728,16.049480 215.007431,16.100473 209.515259,16.086102 
	C183.377838,16.068789 157.703308,16.116837 131.618439,16.100616 
	C130.472168,17.794794 129.102524,19.550419 129.094681,21.312107 
	C128.962662,50.960598 129.000366,80.609840 129.000427,110.258919 
	C129.000427,111.372147 129.000443,112.485374 129.000443,114.073181 
	C150.558258,114.073181 171.617691,114.073181 192.979721,114.073181 
	C193.446945,130.364883 187.507675,144.029175 177.556412,155.568253 
	C165.032257,170.090759 148.418106,177.056931 129.449219,177.241364 
	C129.449219,188.556427 129.449219,199.432983 129.449219,209.999863 
	C132.295776,209.999863 134.687256,210.128220 137.058746,209.965347 
	C139.658234,209.786804 142.247025,209.390839 144.827179,209.001480 
	C171.994339,204.901764 193.101547,190.970993 208.962036,168.904572 
	C215.730835,159.487289 220.765976,149.135956 223.216843,137.643860 
	C223.504959,136.292847 225.041962,135.208160 226.000000,134.000000 
z"/>
<path fill="#F79D22" opacity="1.000000" stroke="none" 
	d="
M1.000000,15.468657 
	C17.364681,15.339661 33.729362,15.679320 50.923965,16.271698 
	C62.884857,16.682943 74.015533,16.900770 85.147026,16.956121 
	C87.758850,16.969109 90.373421,16.432779 92.986725,16.149168 
	C96.595955,15.395245 98.074455,16.621237 98.061638,20.534599 
	C97.952492,53.854256 98.791748,87.200401 97.700706,120.484657 
	C97.050285,140.327042 89.182999,158.287231 76.580933,174.029587 
	C67.283348,185.644043 56.050350,194.636551 42.717953,201.010300 
	C31.319683,206.459427 19.367685,209.937119 6.586898,210.042572 
	C5.005545,210.055634 3.428970,210.647797 1.425090,210.985809 
	C1.000000,199.979111 1.000000,188.958206 1.453161,177.468445 
	C39.663227,176.983246 65.477654,144.192230 64.390259,114.000000 
	C43.267628,114.000000 22.133814,114.000000 1.000000,114.000000 
	C1.000000,81.312439 1.000000,48.624878 1.000000,15.468657 
z"/>
<path fill="#F79D22" opacity="1.000000" stroke="none" 
	d="
M226.000000,133.531342 
	C225.041962,135.208160 223.504959,136.292847 223.216843,137.643860 
	C220.765976,149.135956 215.730835,159.487289 208.962036,168.904572 
	C193.101547,190.970993 171.994339,204.901764 144.827179,209.001480 
	C142.247025,209.390839 139.658234,209.786804 137.058746,209.965347 
	C134.687256,210.128220 132.295776,209.999863 129.449219,209.999863 
	C129.449219,199.432983 129.449219,188.556427 129.449219,177.241364 
	C148.418106,177.056931 165.032257,170.090759 177.556412,155.568253 
	C187.507675,144.029175 193.446945,130.364883 192.979721,114.073181 
	C171.617691,114.073181 150.558258,114.073181 129.000443,114.073181 
	C129.000443,112.485374 129.000427,111.372147 129.000427,110.258919 
	C129.000366,80.609840 128.962662,50.960598 129.094681,21.312107 
	C129.102524,19.550419 130.472168,17.794794 131.982758,16.286533 
	C133.738022,16.687689 134.718506,16.969341 135.699310,16.970480 
	C159.010040,16.997522 182.320831,17.009495 205.631470,16.960587 
	C207.080917,16.957544 208.529282,16.433249 209.978149,16.151466 
	C215.007431,16.100473 220.036728,16.049480 225.533005,15.999244 
	C226.000000,55.020893 226.000000,94.041786 226.000000,133.531342 
z"/>
<path fill="#000000" opacity="1.000000" stroke="none" 
	d="
M1.000000,114.468658 
	C22.133814,114.000000 43.267628,114.000000 64.390259,114.000000 
	C65.477654,144.192230 39.663227,176.983246 1.453161,176.999786 
	C1.000000,156.312439 1.000000,135.624878 1.000000,114.468658 
z"/>
<path fill="#FF9224" opacity="1.000000" stroke="none" 
	d="
M209.515259,16.086103 
	C208.529282,16.433249 207.080917,16.957544 205.631470,16.960587 
	C182.320831,17.009495 159.010040,16.997522 135.699310,16.970480 
	C134.718506,16.969341 133.738022,16.687689 132.393066,16.350801 
	C157.703308,16.116837 183.377838,16.068789 209.515259,16.086103 
z"/>
<path fill="#F79D22" opacity="1.000000" stroke="none" 
	d="
M92.524254,16.074352 
	C90.373421,16.432779 87.758850,16.969109 85.147026,16.956121 
	C74.015533,16.900770 62.884857,16.682943 51.390343,16.336584 
	C64.705132,16.099014 78.383461,16.049274 92.524254,16.074352 
z"/>
</svg>