<svg width="16" height="16" viewBox="0 0 16 16" fill="none" xmlns="http://www.w3.org/2000/svg">
<g id="profile-2user" clip-path="url(#clip0_1_462)">
<g id="vuesax/linear/profile-2user">
<g id="profile-2user_2">
<path id="Vector" d="M6.10667 7.24658C6.04001 7.23992 5.96001 7.23992 5.88668 7.24658C4.30001 7.19325 3.04001 5.89325 3.04001 4.29325C3.04001 2.65992 4.36001 1.33325 6.00001 1.33325C7.63334 1.33325 8.96001 2.65992 8.96001 4.29325C8.95334 5.89325 7.69334 7.19325 6.10667 7.24658Z" stroke="white" stroke-width="1.5" stroke-linecap="round" stroke-linejoin="round"/>
<path id="Vector_2" d="M10.94 2.66675C12.2333 2.66675 13.2733 3.71341 13.2733 5.00008C13.2733 6.26008 12.2733 7.28675 11.0267 7.33341C10.9733 7.32675 10.9133 7.32675 10.8533 7.33341" stroke="white" stroke-width="1.5" stroke-linecap="round" stroke-linejoin="round"/>
<path id="Vector_3" d="M2.77332 9.70675C1.15999 10.7867 1.15999 12.5467 2.77332 13.6201C4.60666 14.8467 7.61332 14.8467 9.44666 13.6201C11.06 12.5401 11.06 10.7801 9.44666 9.70675C7.61999 8.48675 4.61332 8.48675 2.77332 9.70675Z" stroke="white" stroke-width="1.5" stroke-linecap="round" stroke-linejoin="round"/>
<path id="Vector_4" d="M12.2267 13.3333C12.7067 13.2333 13.16 13.0399 13.5333 12.7533C14.5733 11.9733 14.5733 10.6866 13.5333 9.90659C13.1667 9.62659 12.72 9.43992 12.2467 9.33325" stroke="white" stroke-width="1.5" stroke-linecap="round" stroke-linejoin="round"/>
</g>
</g>
</g>
<defs>
<clipPath id="clip0_1_462">
<rect width="16" height="16" fill="white"/>
</clipPath>
</defs>
</svg>
