<svg width="20" height="20" viewBox="0 0 20 20" fill="none" xmlns="http://www.w3.org/2000/svg">
<g id="slack">
<g id="vuesax/linear/slack">
<g id="slack_2">
<path id="Vector" d="M12.0833 1.91675C11.25 1.91675 10.5 2.58341 10.5 3.50008V7.33341C10.5 8.16675 11.1667 8.91675 12.0833 8.91675C12.9167 8.91675 13.6667 8.25008 13.6667 7.33341V3.41675C13.6667 2.58341 13 1.91675 12.0833 1.91675Z" fill="white" fill-opacity="0.6" stroke="white" stroke-opacity="0.6" stroke-width="0.7" stroke-miterlimit="10" stroke-linecap="round" stroke-linejoin="round"/>
<path id="Vector_2" d="M15.5 8.83342H16.8333C17.5833 8.83342 18.1667 8.25008 18.1667 7.50008C18.1667 6.75008 17.5833 6.16675 16.8333 6.16675C16.0833 6.16675 15.5 6.75008 15.5 7.50008V8.83342Z" fill="white" fill-opacity="0.6" stroke="white" stroke-opacity="0.6" stroke-width="0.7" stroke-miterlimit="10" stroke-linecap="round" stroke-linejoin="round"/>
<path id="Vector_3" d="M1.66669 7.66658C1.66669 8.49992 2.33335 9.24992 3.25002 9.24992H7.08335C7.91669 9.24992 8.66669 8.58325 8.66669 7.66658C8.66669 6.83325 8.00002 6.08325 7.08335 6.08325H3.25002C2.33335 6.16659 1.66669 6.83325 1.66669 7.66658Z" fill="white" fill-opacity="0.6" stroke="white" stroke-opacity="0.6" stroke-width="0.7" stroke-miterlimit="10" stroke-linecap="round" stroke-linejoin="round"/>
<path id="Vector_4" d="M8.66667 4.25008V3.00008C8.66667 2.25008 8.08333 1.66675 7.33333 1.66675C6.58333 1.66675 6 2.25008 6 3.00008C6 3.75008 6.58333 4.33341 7.33333 4.33341H8.66667V4.25008Z" fill="white" fill-opacity="0.6" stroke="white" stroke-opacity="0.6" stroke-width="0.7" stroke-miterlimit="10" stroke-linecap="round" stroke-linejoin="round"/>
<path id="Vector_5" d="M7.83333 18.1667C8.66667 18.1667 9.41667 17.5001 9.41667 16.5834V12.7501C9.41667 11.9167 8.75 11.1667 7.83333 11.1667C7 11.1667 6.25 11.8334 6.25 12.7501V16.5834C6.33333 17.4167 7 18.1667 7.83333 18.1667Z" fill="white" fill-opacity="0.6" stroke="white" stroke-opacity="0.6" stroke-width="0.7" stroke-miterlimit="10" stroke-linecap="round" stroke-linejoin="round"/>
<path id="Vector_6" d="M4.49998 11.1667H3.16665C2.41665 11.1667 1.83331 11.7501 1.83331 12.5001C1.83331 13.2501 2.41665 13.8334 3.16665 13.8334C3.91665 13.8334 4.49998 13.2501 4.49998 12.5001V11.1667Z" fill="white" fill-opacity="0.6" stroke="white" stroke-opacity="0.6" stroke-width="0.7" stroke-miterlimit="10" stroke-linecap="round" stroke-linejoin="round"/>
<path id="Vector_7" d="M18.3333 12.3333C18.3333 11.5 17.6666 10.75 16.75 10.75H12.9166C12.0833 10.75 11.3333 11.4167 11.3333 12.3333C11.3333 13.1667 12 13.9167 12.9166 13.9167H16.75C17.5833 13.9167 18.3333 13.1667 18.3333 12.3333Z" fill="white" fill-opacity="0.6" stroke="white" stroke-opacity="0.6" stroke-width="0.7" stroke-miterlimit="10" stroke-linecap="round" stroke-linejoin="round"/>
<path id="Vector_8" d="M11.3333 15.6667V17.0001C11.3333 17.7501 11.9166 18.3334 12.6666 18.3334C13.4166 18.3334 14 17.7501 14 17.0001C14 16.2501 13.4166 15.6667 12.6666 15.6667H11.3333Z" fill="white" fill-opacity="0.6" stroke="white" stroke-opacity="0.6" stroke-width="0.7" stroke-miterlimit="10" stroke-linecap="round" stroke-linejoin="round"/>
</g>
</g>
</g>
</svg>
