<svg width="20" height="20" viewBox="0 0 20 20" fill="none" xmlns="http://www.w3.org/2000/svg">
<g id="Twitter">
<g id="Twitter_2">
<rect id="Rectangle" width="20" height="20" rx="10" fill="white" fill-opacity="0.6"/>
<path id="Path" d="M14.9011 7.83862C14.9011 7.948 14.9011 8.05737 14.9011 8.15112C14.9011 11.3855 12.4323 15.1199 7.93231 15.1199C6.54169 15.1199 5.26044 14.7136 4.16669 14.0261C4.35419 14.0417 4.55731 14.0574 4.74481 14.0574C5.88544 14.0574 6.94794 13.6667 7.79169 13.0105C6.71356 12.9949 5.80731 12.2761 5.51044 11.3074C5.66669 11.3386 5.80731 11.3542 5.97919 11.3542C6.19794 11.3542 6.41669 11.323 6.61981 11.2605C5.49481 11.0417 4.65106 10.0574 4.65106 8.86987C4.65106 8.85425 4.65106 8.85425 4.65106 8.83862C4.97919 9.02612 5.35419 9.1355 5.76044 9.15112C5.10419 8.71362 4.66669 7.96362 4.66669 7.10425C4.66669 6.65112 4.79169 6.22925 4.99481 5.86987C6.19794 7.35425 8.01044 8.323 10.0417 8.43237C9.99481 8.2605 9.97919 8.05737 9.97919 7.86987C9.97919 6.5105 11.0729 5.41675 12.4323 5.41675C13.1354 5.41675 13.7761 5.71362 14.2136 6.18237C14.7761 6.073 15.2917 5.86987 15.7761 5.58862C15.5886 6.16675 15.1979 6.6355 14.6979 6.948C15.1979 6.8855 15.6667 6.7605 16.1042 6.55737C15.7917 7.05737 15.3854 7.49487 14.9011 7.83862Z" fill="#1B1F23"/>
</g>
</g>
</svg>
