<svg width="58" height="63" viewBox="0 0 58 63" fill="none" xmlns="http://www.w3.org/2000/svg">
<path fill-rule="evenodd" clip-rule="evenodd" d="M22.9245 12.612C22.7539 11.5944 22.6254 10.5883 22.5424 9.58217C22.4173 8.07293 22.4946 6.55214 22.4503 5.0429C22.431 4.40261 22.3548 2.73332 22.3855 2.49321C22.6641 0.400847 24.3437 0.0806647 24.835 0.0234963C25.0727 -0.0108047 27.5131 -0.28509 28.0396 2.43612C28.6856 5.76332 28.8926 9.11335 28.664 12.3948C29.1973 15.1846 30.1094 17.9629 31.3137 20.4784C36.1059 30.4828 45.2377 31.4547 55.1314 31.3632C56.653 31.3404 57.9164 32.5409 57.996 34.0616C58.0757 35.5937 56.943 36.92 55.4282 37.0572C49.898 37.5946 40.0861 42.0538 36.6938 46.6958C35.9842 47.6677 35.5714 50.0116 35.0255 52.3098C34.2636 55.4998 33.3573 58.6555 32.3417 59.9818C32.1893 60.1876 30.3368 62.2914 29.7841 62.6001C28.4559 63.3319 27.3926 62.9087 26.7887 62.52C26.1849 62.1313 25.5014 61.3652 25.2285 60.0961C24.943 58.7698 25.1841 56.0485 25.1398 55.4654C24.9783 53.3501 24.5576 49.1997 23.699 45.6324C23.2361 43.7116 22.7426 41.9394 21.926 41.059C18.9033 37.8004 14.0702 38.2806 10.0001 38.818C9.53274 38.8752 9.06535 38.9438 8.5991 39.001C6.94218 39.4926 5.18288 39.8585 3.32354 40.0757C0.515772 40.4073 0.0540964 37.8118 0.0290778 37.6403C-0.0232338 37.263 -0.217717 35.3193 1.89863 34.5418C2.12948 34.4618 3.83304 34.0845 4.48921 33.9358C5.40352 33.73 6.32806 33.57 7.25602 33.4214C16.8416 30.4257 22.0477 22.0105 22.9245 12.612ZM26.2144 23.0053C29.833 30.5287 35.3246 34.1645 41.834 35.811H41.8329C37.7685 37.9491 34.0714 40.6246 32.112 43.3115C31.3682 44.3291 30.6859 46.3757 30.0707 48.6738C29.7375 46.5357 29.2872 44.2604 28.6924 42.3167C28.0158 40.0985 27.1049 38.2578 26.0882 37.1602C24.1254 35.045 21.6622 33.8673 19.0136 33.2842C22.1841 30.46 24.5882 26.9385 26.2144 23.0053Z" fill="#FD8E8E"/>
</svg>
