<svg width="55" height="54" viewBox="0 0 55 54" fill="none" xmlns="http://www.w3.org/2000/svg">
<g id="shapes">
<path id="Vector" fill-rule="evenodd" clip-rule="evenodd" d="M4.86983 28.0237C6.56685 21.1236 6.45572 14.4788 6.6591 7.47991C6.69862 6.11306 5.6249 4.9767 4.26218 4.93553C2.89863 4.89436 1.76066 5.97305 1.72031 7.33989C1.52764 13.9765 1.68328 20.2919 0.0727134 26.8462C-0.253353 28.1718 0.557713 29.514 1.88174 29.8351C3.20494 30.1645 4.54458 29.3493 4.86983 28.0237Z" fill="#FF6644"/>
<path id="Vector_2" fill-rule="evenodd" clip-rule="evenodd" d="M19.2868 41.3961C30.7996 30.873 41.647 17.3364 49.2289 3.66796C49.8901 2.47404 49.4594 0.967152 48.2672 0.308434C47.0749 -0.350288 45.5697 0.0779152 44.9085 1.27185C37.577 14.4874 27.0861 27.5795 15.9537 37.7485C14.9475 38.6707 14.8775 40.2351 15.7973 41.2397C16.717 42.2442 18.2806 42.3183 19.2868 41.3961Z" fill="#FF6644"/>
<path id="Vector_3" fill-rule="evenodd" clip-rule="evenodd" d="M22.2031 52.8904C32.7327 54.6278 43.5859 51.6636 53.1604 47.4725C54.4095 46.9208 54.9793 45.4635 54.4334 44.2201C53.8867 42.9686 52.4284 42.4004 51.1793 42.9438C42.4595 46.7644 32.5977 49.5969 23.0075 48.016C21.6621 47.7937 20.39 48.7076 20.1685 50.0498C19.9461 51.3919 20.8585 52.6681 22.2031 52.8904Z" fill="#FF6644"/>
</g>
</svg>
