<svg width="72" height="72" viewBox="0 0 72 72" fill="none" xmlns="http://www.w3.org/2000/svg">
<rect width="72" height="72" rx="12" fill="#FF9201"/>
<path d="M47.7339 40.0427C46.8185 38.8072 45.8366 37.8019 45.8366 35.5029V27.8708C45.8366 24.6362 46.0743 21.6667 43.631 19.4413C41.7078 17.6367 38.5131 17 36.0698 17C31.2913 17 25.9606 18.7391 24.8427 24.5021C24.7244 25.1142 25.1801 25.4347 25.5931 25.5247L30.4589 26.0386C30.9145 26.016 31.2435 25.579 31.3317 25.1388C31.749 23.153 33.4532 22.1989 35.3682 22.1989C36.4009 22.1989 37.5737 22.5674 38.185 23.4713C38.8888 24.4775 38.7943 25.8604 38.7943 27.0222V27.662C35.8841 27.9793 32.0771 28.1902 29.3515 29.3561C26.2077 30.6847 24 33.3881 24 37.3618C24 42.4543 27.285 45 31.5145 45C35.0839 45 37.0372 44.178 39.7908 41.4389C40.7042 42.7306 41.0031 43.353 42.6689 44.7052C43.0425 44.8998 43.5242 44.8812 43.8552 44.5886L43.8564 44.5875L43.8677 44.5998C44.8703 43.7297 46.6908 42.1861 47.7173 41.3468C48.1273 41.0182 48.0546 40.4869 47.7339 40.0427ZM37.8551 37.8419C37.058 39.2238 35.7886 40.0693 34.3781 40.0693C32.4548 40.0693 31.3255 38.6362 31.3255 36.5162C31.3255 32.343 35.1637 31.5855 38.7933 31.5855V32.6429H38.7944C38.7944 34.5519 38.8411 36.1416 37.8551 37.8419Z" fill="white"/>
<path d="M53.7718 48.5228C48.9557 52.7506 41.9712 55 35.9561 55C27.5291 55 19.9383 51.2941 14.1945 45.1244C13.744 44.6393 14.1461 43.9768 14.6874 44.3534C20.8854 48.6444 28.5486 51.2274 36.4634 51.2274C41.8033 51.2274 47.672 49.9102 53.072 47.1834C53.8866 46.7735 54.5693 47.8236 53.7718 48.5228Z" fill="white"/>
<path d="M55.7739 45.7991C55.1583 44.8618 51.7006 45.355 50.1499 45.5779C49.6782 45.643 49.6057 45.1559 50.0294 44.7986C52.7867 42.4945 57.305 43.1613 57.8305 43.9314C58.3601 44.7123 57.6923 50.1008 55.1077 52.6715C54.71 53.0682 54.3325 52.8592 54.5081 52.3358C55.0894 50.6061 56.3918 46.7381 55.7739 45.7991Z" fill="white"/>
</svg>
