<svg width="72" height="72" viewBox="0 0 72 72" fill="none" xmlns="http://www.w3.org/2000/svg">
<rect width="72" height="72" rx="12" fill="#EA4C89"/>
<path d="M36 56C24.9688 56 16 47.0364 16 36.0078C16 24.9636 24.9688 16 36 16C47.0312 16 56 24.9636 56 35.9922C56 47.0207 47.0312 56 36 56ZM52.8594 38.7298C52.2812 38.542 47.5781 37.1498 42.2188 37.9945C44.4531 44.1267 45.3594 49.1326 45.5312 50.165C49.375 47.5839 52.1094 43.4853 52.8594 38.7298ZM42.6719 51.745C42.4219 50.2433 41.4219 45.0184 39.0312 38.7923C39 38.808 38.9531 38.8236 38.9219 38.8236C29.2812 42.1869 25.8281 48.8666 25.5156 49.4924C28.4062 51.745 32.0469 53.0903 36 53.0903C38.3594 53.106 40.625 52.621 42.6719 51.745ZM23.3125 47.4431C23.7031 46.7861 28.3906 39.027 37.2031 36.1643C37.4219 36.086 37.6562 36.0235 37.875 35.9609C37.4531 34.991 36.9844 34.0211 36.4844 33.0669C27.9531 35.6167 19.6719 35.5072 18.9219 35.4916C18.9219 35.6637 18.9062 35.8357 18.9062 36.0078C18.9219 40.4036 20.5781 44.4083 23.3125 47.4431ZM19.2812 32.5194C20.0469 32.535 27.0781 32.5663 35.0781 30.4388C32.25 25.4016 29.1875 21.1779 28.75 20.5679C23.9531 22.8205 20.3906 27.2319 19.2812 32.5194ZM32 19.4102C32.4688 20.036 35.5781 24.2597 38.375 29.4063C44.4531 27.1224 47.0156 23.6809 47.3281 23.2429C44.3125 20.5679 40.3438 18.9409 36 18.9409C34.625 18.9409 33.2812 19.113 32 19.4102ZM49.2188 25.2139C48.8594 25.6989 46 29.375 39.6875 31.9562C40.0781 32.7697 40.4688 33.5987 40.8281 34.4278C40.9531 34.7251 41.0781 35.0223 41.2031 35.3039C46.8906 34.5843 52.5312 35.7419 53.0938 35.8514C53.0469 31.8311 51.6094 28.1236 49.2188 25.2139Z" fill="white"/>
</svg>
