<svg width="121" height="44" viewBox="0 0 121 44" fill="none" xmlns="http://www.w3.org/2000/svg">
<circle cx="22" cy="22" r="22" fill="#FF6644"/>
<g style="mix-blend-mode:luminosity">
<path d="M20.392 30.24C19.496 30.24 18.648 30.128 17.848 29.904C17.048 29.68 16.336 29.344 15.712 28.896C15.088 28.432 14.592 27.864 14.224 27.192C13.872 26.52 13.68 25.736 13.648 24.84C13.648 24.696 13.696 24.576 13.792 24.48C13.888 24.368 14.016 24.312 14.176 24.312H16.912C17.12 24.312 17.28 24.368 17.392 24.48C17.52 24.592 17.616 24.752 17.68 24.96C17.76 25.472 17.928 25.888 18.184 26.208C18.44 26.528 18.76 26.768 19.144 26.928C19.544 27.072 19.992 27.144 20.488 27.144C21.4 27.144 22.096 26.848 22.576 26.256C23.072 25.664 23.32 24.824 23.32 23.736V16.392H15.328C15.168 16.392 15.032 16.336 14.92 16.224C14.808 16.112 14.752 15.976 14.752 15.816V13.8C14.752 13.624 14.808 13.48 14.92 13.368C15.032 13.256 15.168 13.2 15.328 13.2H26.632C26.808 13.2 26.952 13.256 27.064 13.368C27.176 13.48 27.232 13.624 27.232 13.8V23.832C27.232 25.208 26.944 26.376 26.368 27.336C25.792 28.28 24.992 29 23.968 29.496C22.944 29.992 21.752 30.24 20.392 30.24ZM36.0912 30.24C34.7632 30.24 33.6512 30.024 32.7552 29.592C31.8592 29.144 31.1712 28.512 30.6912 27.696C30.2272 26.88 29.9712 25.928 29.9232 24.84C29.9072 24.52 29.8992 24.16 29.8992 23.76C29.8992 23.344 29.9072 22.984 29.9232 22.68C29.9712 21.576 30.2432 20.624 30.7392 19.824C31.2352 19.008 31.9312 18.384 32.8272 17.952C33.7232 17.504 34.8112 17.28 36.0912 17.28C37.3552 17.28 38.4352 17.504 39.3312 17.952C40.2272 18.384 40.9232 19.008 41.4192 19.824C41.9152 20.624 42.1872 21.576 42.2352 22.68C42.2672 22.984 42.2832 23.344 42.2832 23.76C42.2832 24.16 42.2672 24.52 42.2352 24.84C42.1872 25.928 41.9232 26.88 41.4432 27.696C40.9792 28.512 40.2992 29.144 39.4032 29.592C38.5072 30.024 37.4032 30.24 36.0912 30.24ZM36.0912 27.6C36.8752 27.6 37.4672 27.36 37.8672 26.88C38.2672 26.384 38.4832 25.664 38.5152 24.72C38.5312 24.48 38.5392 24.16 38.5392 23.76C38.5392 23.36 38.5312 23.04 38.5152 22.8C38.4832 21.872 38.2672 21.16 37.8672 20.664C37.4672 20.168 36.8752 19.92 36.0912 19.92C35.3072 19.92 34.7072 20.168 34.2912 20.664C33.8912 21.16 33.6752 21.872 33.6432 22.8C33.6272 23.04 33.6192 23.36 33.6192 23.76C33.6192 24.16 33.6272 24.48 33.6432 24.72C33.6752 25.664 33.8912 26.384 34.2912 26.88C34.7072 27.36 35.3072 27.6 36.0912 27.6ZM52.0413 30.24C51.1293 30.24 50.3693 30.088 49.7613 29.784C49.1533 29.464 48.6573 29.064 48.2733 28.584V29.4C48.2733 29.576 48.2173 29.72 48.1053 29.832C47.9933 29.944 47.8493 30 47.6733 30H45.3933C45.2173 30 45.0733 29.944 44.9613 29.832C44.8493 29.72 44.7933 29.576 44.7933 29.4V13.56C44.7933 13.384 44.8493 13.24 44.9613 13.128C45.0733 13.016 45.2173 12.96 45.3933 12.96H47.8653C48.0253 12.96 48.1613 13.016 48.2733 13.128C48.3853 13.24 48.4413 13.384 48.4413 13.56V18.792C48.8413 18.344 49.3373 17.984 49.9293 17.712C50.5213 17.424 51.2253 17.28 52.0413 17.28C52.8733 17.28 53.5933 17.424 54.2013 17.712C54.8253 17.984 55.3533 18.376 55.7853 18.888C56.2173 19.384 56.5453 19.976 56.7693 20.664C57.0093 21.352 57.1373 22.112 57.1533 22.944C57.1693 23.232 57.1773 23.504 57.1773 23.76C57.1773 24 57.1693 24.272 57.1533 24.576C57.1213 25.424 56.9853 26.2 56.7453 26.904C56.5213 27.592 56.1933 28.192 55.7613 28.704C55.3453 29.2 54.8253 29.584 54.2013 29.856C53.5933 30.112 52.8733 30.24 52.0413 30.24ZM50.9613 27.36C51.5693 27.36 52.0493 27.232 52.4013 26.976C52.7533 26.704 53.0013 26.352 53.1453 25.92C53.3053 25.488 53.4013 25.016 53.4333 24.504C53.4653 24.008 53.4653 23.512 53.4333 23.016C53.4013 22.504 53.3053 22.032 53.1453 21.6C53.0013 21.168 52.7533 20.824 52.4013 20.568C52.0493 20.296 51.5693 20.16 50.9613 20.16C50.3853 20.16 49.9133 20.288 49.5453 20.544C49.1933 20.8 48.9213 21.128 48.7293 21.528C48.5533 21.912 48.4573 22.328 48.4413 22.776C48.4253 23.064 48.4173 23.36 48.4173 23.664C48.4173 23.968 48.4253 24.272 48.4413 24.576C48.4733 25.056 48.5693 25.504 48.7293 25.92C48.8893 26.336 49.1533 26.68 49.5213 26.952C49.8893 27.224 50.3693 27.36 50.9613 27.36ZM64.6429 30.24C63.6509 30.24 62.7949 30.128 62.0749 29.904C61.3709 29.664 60.7949 29.376 60.3469 29.04C59.9149 28.704 59.5869 28.368 59.3629 28.032C59.1549 27.68 59.0429 27.384 59.0269 27.144C59.0109 26.968 59.0669 26.824 59.1949 26.712C59.3229 26.6 59.4509 26.544 59.5789 26.544H61.9069C61.9549 26.544 62.0029 26.552 62.0509 26.568C62.0989 26.584 62.1469 26.624 62.1949 26.688C62.4029 26.832 62.6189 27 62.8429 27.192C63.0669 27.368 63.3229 27.52 63.6109 27.648C63.9149 27.776 64.2909 27.84 64.7389 27.84C65.2669 27.84 65.7149 27.736 66.0829 27.528C66.4509 27.304 66.6349 26.992 66.6349 26.592C66.6349 26.304 66.5469 26.064 66.3709 25.872C66.2109 25.68 65.8989 25.504 65.4349 25.344C64.9709 25.184 64.2829 25.008 63.3709 24.816C62.5069 24.624 61.7709 24.368 61.1629 24.048C60.5549 23.728 60.0989 23.328 59.7949 22.848C59.4909 22.352 59.3389 21.76 59.3389 21.072C59.3389 20.448 59.5309 19.848 59.9149 19.272C60.3149 18.696 60.8989 18.224 61.6669 17.856C62.4349 17.472 63.3949 17.28 64.5469 17.28C65.4269 17.28 66.1949 17.392 66.8509 17.616C67.5229 17.824 68.0829 18.096 68.5309 18.432C68.9789 18.752 69.3149 19.088 69.5389 19.44C69.7789 19.776 69.9069 20.072 69.9229 20.328C69.9389 20.488 69.8909 20.624 69.7789 20.736C69.6669 20.848 69.5389 20.904 69.3949 20.904H67.2589C67.1789 20.904 67.1069 20.896 67.0429 20.88C66.9789 20.848 66.9229 20.808 66.8749 20.76C66.6829 20.632 66.4829 20.488 66.2749 20.328C66.0829 20.152 65.8509 20 65.5789 19.872C65.3069 19.744 64.9549 19.68 64.5229 19.68C63.9949 19.68 63.5869 19.8 63.2989 20.04C63.0269 20.264 62.8909 20.552 62.8909 20.904C62.8909 21.128 62.9629 21.336 63.1069 21.528C63.2509 21.72 63.5469 21.896 63.9949 22.056C64.4429 22.216 65.1229 22.384 66.0349 22.56C67.1229 22.752 67.9869 23.04 68.6269 23.424C69.2669 23.808 69.7229 24.256 69.9949 24.768C70.2829 25.264 70.4269 25.8 70.4269 26.376C70.4269 27.128 70.2029 27.8 69.7549 28.392C69.3069 28.968 68.6509 29.424 67.7869 29.76C66.9389 30.08 65.8909 30.24 64.6429 30.24ZM78.6839 30C77.6919 30 76.8439 29.84 76.1399 29.52C75.4359 29.184 74.8999 28.672 74.5319 27.984C74.1799 27.296 74.0039 26.432 74.0039 25.392V20.352H72.1319C71.9559 20.352 71.8119 20.296 71.6999 20.184C71.5879 20.072 71.5319 19.928 71.5319 19.752V18.12C71.5319 17.944 71.5879 17.8 71.6999 17.688C71.8119 17.576 71.9559 17.52 72.1319 17.52H74.0039V13.56C74.0039 13.384 74.0599 13.24 74.1719 13.128C74.2999 13.016 74.4439 12.96 74.6039 12.96H76.9559C77.1319 12.96 77.2759 13.016 77.3879 13.128C77.4999 13.24 77.5559 13.384 77.5559 13.56V17.52H80.5559C80.7159 17.52 80.8519 17.576 80.9639 17.688C81.0759 17.8 81.1319 17.944 81.1319 18.12V19.752C81.1319 19.928 81.0759 20.072 80.9639 20.184C80.8519 20.296 80.7159 20.352 80.5559 20.352H77.5559V25.104C77.5559 25.712 77.6599 26.192 77.8679 26.544C78.0919 26.88 78.4759 27.048 79.0199 27.048H80.7719C80.9319 27.048 81.0679 27.104 81.1799 27.216C81.2919 27.328 81.3479 27.464 81.3479 27.624V29.4C81.3479 29.576 81.2919 29.72 81.1799 29.832C81.0679 29.944 80.9319 30 80.7719 30H78.6839ZM89.1537 30.24C87.8257 30.24 86.7137 30.024 85.8177 29.592C84.9217 29.144 84.2337 28.512 83.7537 27.696C83.2897 26.88 83.0337 25.928 82.9857 24.84C82.9697 24.52 82.9617 24.16 82.9617 23.76C82.9617 23.344 82.9697 22.984 82.9857 22.68C83.0337 21.576 83.3057 20.624 83.8017 19.824C84.2977 19.008 84.9937 18.384 85.8897 17.952C86.7857 17.504 87.8737 17.28 89.1537 17.28C90.4177 17.28 91.4977 17.504 92.3937 17.952C93.2897 18.384 93.9857 19.008 94.4817 19.824C94.9777 20.624 95.2497 21.576 95.2977 22.68C95.3297 22.984 95.3457 23.344 95.3457 23.76C95.3457 24.16 95.3297 24.52 95.2977 24.84C95.2497 25.928 94.9857 26.88 94.5057 27.696C94.0417 28.512 93.3617 29.144 92.4657 29.592C91.5697 30.024 90.4657 30.24 89.1537 30.24ZM89.1537 27.6C89.9377 27.6 90.5297 27.36 90.9297 26.88C91.3297 26.384 91.5457 25.664 91.5777 24.72C91.5937 24.48 91.6017 24.16 91.6017 23.76C91.6017 23.36 91.5937 23.04 91.5777 22.8C91.5457 21.872 91.3297 21.16 90.9297 20.664C90.5297 20.168 89.9377 19.92 89.1537 19.92C88.3697 19.92 87.7697 20.168 87.3537 20.664C86.9537 21.16 86.7377 21.872 86.7057 22.8C86.6897 23.04 86.6817 23.36 86.6817 23.76C86.6817 24.16 86.6897 24.48 86.7057 24.72C86.7377 25.664 86.9537 26.384 87.3537 26.88C87.7697 27.36 88.3697 27.6 89.1537 27.6ZM98.4318 30C98.2718 30 98.1358 29.944 98.0238 29.832C97.9118 29.72 97.8558 29.576 97.8558 29.4V18.12C97.8558 17.96 97.9118 17.824 98.0238 17.712C98.1358 17.584 98.2718 17.52 98.4318 17.52H100.784C100.944 17.52 101.08 17.584 101.192 17.712C101.32 17.824 101.384 17.96 101.384 18.12V19.08C101.784 18.584 102.272 18.2 102.848 17.928C103.44 17.656 104.12 17.52 104.888 17.52H105.92C106.08 17.52 106.216 17.576 106.328 17.688C106.44 17.8 106.496 17.944 106.496 18.12V20.184C106.496 20.36 106.44 20.504 106.328 20.616C106.216 20.728 106.08 20.784 105.92 20.784H103.808C103.104 20.784 102.552 20.984 102.152 21.384C101.752 21.768 101.552 22.32 101.552 23.04V29.4C101.552 29.576 101.496 29.72 101.384 29.832C101.272 29.944 101.128 30 100.952 30H98.4318ZM113.713 30.24C111.873 30.24 110.409 29.728 109.321 28.704C108.249 27.68 107.681 26.192 107.617 24.24C107.617 24.112 107.617 23.944 107.617 23.736C107.617 23.512 107.617 23.336 107.617 23.208C107.681 21.976 107.961 20.92 108.457 20.04C108.953 19.144 109.649 18.464 110.545 18C111.441 17.52 112.489 17.28 113.689 17.28C115.033 17.28 116.153 17.56 117.049 18.12C117.961 18.664 118.641 19.416 119.089 20.376C119.553 21.32 119.785 22.408 119.785 23.64V24.192C119.785 24.352 119.721 24.488 119.593 24.6C119.481 24.712 119.345 24.768 119.185 24.768H111.337C111.337 24.784 111.337 24.816 111.337 24.864C111.337 24.896 111.337 24.928 111.337 24.96C111.353 25.472 111.449 25.944 111.625 26.376C111.817 26.792 112.081 27.128 112.417 27.384C112.769 27.64 113.185 27.768 113.665 27.768C114.065 27.768 114.393 27.712 114.649 27.6C114.905 27.488 115.113 27.352 115.273 27.192C115.449 27.032 115.577 26.896 115.657 26.784C115.801 26.624 115.913 26.528 115.993 26.496C116.089 26.448 116.233 26.424 116.425 26.424H118.921C119.081 26.424 119.209 26.472 119.305 26.568C119.417 26.648 119.465 26.768 119.449 26.928C119.433 27.184 119.297 27.504 119.041 27.888C118.801 28.256 118.441 28.624 117.961 28.992C117.481 29.344 116.881 29.64 116.161 29.88C115.457 30.12 114.641 30.24 113.713 30.24ZM111.337 22.584H116.041V22.536C116.041 21.96 115.945 21.464 115.753 21.048C115.577 20.616 115.313 20.28 114.961 20.04C114.609 19.8 114.185 19.68 113.689 19.68C113.193 19.68 112.769 19.8 112.417 20.04C112.065 20.28 111.793 20.616 111.601 21.048C111.425 21.464 111.337 21.96 111.337 22.536V22.584Z" fill="white"/>
</g>
</svg>
