<svg width="72" height="72" viewBox="0 0 72 72" fill="none" xmlns="http://www.w3.org/2000/svg">
<rect width="72" height="72" rx="12" fill="#082069"/>
<path opacity="0.68" d="M48.4939 27.1465C48.9332 24.3458 48.4909 22.4405 46.9762 20.7142C45.3085 18.814 42.2959 18 38.4413 18H27.2524C26.4648 18 25.7938 18.5731 25.6713 19.3516L21.0119 48.8958C20.9202 49.4788 21.3709 50.0057 21.9605 50.0057H28.868L28.3913 53.029C28.311 53.5391 28.7048 54 29.2211 54H35.0437C35.7326 54 36.3193 53.4987 36.4268 52.8178L36.484 52.5215L37.5807 45.5663L37.6515 45.1821C37.7589 44.5015 38.3456 43.9995 39.0346 43.9995H39.9055C45.5461 43.9995 49.9628 41.7081 51.2532 35.0807C51.7925 32.3116 51.5135 30 50.0875 28.3749C49.6566 27.8843 49.1198 27.478 48.4939 27.1465Z" fill="white"/>
<path opacity="0.7" d="M48.4939 27.1465C48.9332 24.3458 48.4909 22.4405 46.9762 20.7142C45.3085 18.814 42.2959 18 38.4413 18H27.2524C26.4648 18 25.7938 18.5731 25.6713 19.3516L21.0119 48.8958C20.9202 49.4788 21.3709 50.0057 21.9605 50.0057H28.868L30.6032 39.0028L30.5492 39.3478C30.6721 38.5697 31.3369 37.9962 32.1249 37.9962H35.4081C41.8559 37.9962 46.9047 35.3766 48.3795 27.801C48.4235 27.5773 48.4605 27.3599 48.4939 27.1465Z" fill="white"/>
<path d="M32.4674 27.1835C32.5411 26.7156 32.8417 26.3321 33.2462 26.1385C33.4299 26.0505 33.6356 26.0013 33.8508 26.0013H42.6215C43.6607 26.0013 44.6294 26.0695 45.515 26.2122C45.768 26.2529 46.0144 26.2998 46.2538 26.353C46.4929 26.4062 46.7254 26.4652 46.9502 26.5312C47.0627 26.5638 47.1731 26.5987 47.282 26.6346C47.7169 26.7791 48.1221 26.9492 48.4946 27.1469C48.9339 24.3461 48.4917 22.4409 46.9769 20.7145C45.3085 18.814 42.2959 18 38.4413 18H27.2524C26.4648 18 25.7938 18.5731 25.6713 19.3516L21.0119 48.8958C20.9202 49.4788 21.3709 50.0057 21.9605 50.0057H28.868L30.6031 39.0028L32.4674 27.1835Z" fill="white"/>
</svg>
